<?xml version="1.0"?>

<!DOCTYPE svg PUBLIC '-//W3C//DTD SVG 1.0//EN' 'http://www.w3.org/TR/2001/REC-SVG-20010904/DTD/svg10.dtd'>
<svg fill-opacity="1" xmlns:xlink="http://www.w3.org/1999/xlink" color-rendering="auto" color-interpolation="auto" text-rendering="auto" stroke="black" stroke-linecap="square" stroke-miterlimit="10" shape-rendering="auto" stroke-opacity="1" fill="black" stroke-dasharray="none" font-weight="normal" stroke-width="1" xmlns="http://www.w3.org/2000/svg" font-family="&apos;Dialog&apos;" font-style="normal" stroke-linejoin="miter" font-size="12" stroke-dashoffset="0" image-rendering="auto">
  <!--Unicode Character 'BOMB' (U+1F4A3)-->
  <defs id="genericDefs" />
  <g>
    <g>
      <path d="M120.375 92.6719 L103.0781 109.4062 Q101.8125 108.5625 98.1562 104.9062 L115.3125 87.6094 L120.375 92.6719 ZM135.5625 128.25 L111.5156 131.2031 Q111.9375 129.9375 111.5156 124.875 L135.5625 121.3594 Q135.1406 123.1875 135.5625 128.25 ZM86.625 72.8438 L83.1094 98.7188 L82.4062 98.7188 L81.2812 98.7188 Q75.9375 98.7188 76.2188 98.7188 L79.7344 72.7031 Q80.8594 72.7031 83.25 72.8438 Q85.5 72.8438 86.625 72.8438 ZM60.0469 99.2812 Q57.9375 100.4062 53.5781 102.5156 L42.4688 80.7188 Q44.1562 79.0312 48.0938 77.0625 L60.0469 99.2812 ZM280.9688 239.0625 Q280.9688 279.2812 251.4375 309.0234 Q221.9062 338.7656 181.6875 338.7656 Q139.9219 338.7656 111.375 309.7969 Q82.8281 280.8281 82.8281 239.0625 Q82.8281 208.6875 98.5781 184.9219 Q82.8281 167.2031 82.8281 167.2031 Q82.8281 162.4219 93.7266 151.9453 Q104.625 141.4688 109.2656 141.4688 Q111.0938 141.4688 127.2656 156.2344 Q150.75 140.4844 181.6875 140.4844 Q222.1875 140.4844 251.5781 169.5234 Q280.9688 198.5625 280.9688 239.0625 ZM94.0781 147.6562 L89.0156 152.7188 Q84.6562 151.4531 80.2969 149.9766 Q75.9375 148.5 73.2656 144.4219 Q72.8438 143.7188 71.5781 138.7969 Q70.7344 135.7031 67.9219 135.1406 L68.3438 133.1719 Q69.8906 133.1719 71.5781 134.0156 Q71.8594 133.7344 73.8281 130.2188 Q74.5312 129.2344 78.3281 129.2344 Q77.0625 134.2969 77.0625 135 Q77.0625 144.2812 94.0781 147.6562 ZM43.875 115.3125 Q43.7344 115.875 41.0625 121.2188 L16.7344 109.125 Q17.8594 107.0156 19.9688 102.9375 L43.875 115.3125 ZM39.375 143.0156 L12.7969 147.5156 Q11.9531 143.0156 11.5312 140.625 L38.1094 136.2656 L39.375 143.0156 ZM70.875 170.5781 L67.3594 196.4531 Q63.5625 195.8906 60.4688 195.1875 L63.9844 170.5781 Q68.3438 170.8594 70.875 170.5781 ZM50.3438 162.7031 L32.2031 180.8438 L27.1406 175.7812 L45.2812 158.0625 Q46.5469 158.9062 50.3438 162.7031 ZM121.7812 160.0312 L108.4219 145.8281 Q105.6094 147.5156 104.2031 149.0625 L118.4062 162.8438 Q120.0938 161.7188 121.7812 160.0312 ZM235.9688 167.625 Q210.9375 148.7812 181.6875 148.7812 Q144.1406 148.7812 117.8438 175.2188 Q91.5469 201.6562 91.5469 239.2031 Q91.5469 269.8594 109.8281 293.2031 Q99.4219 273.2344 99.4219 249.4688 Q99.4219 210.9375 126.4219 183.7969 Q153.4219 156.6562 191.9531 156.6562 Q213.4688 156.6562 235.9688 167.625 Z" stroke="none" />
    </g>
  </g>
</svg>
